<svg width="40" height="40" viewBox="0 0 40 40" fill="none" xmlns="http://www.w3.org/2000/svg">
<rect x="1" y="1" width="38" height="38" rx="19" stroke="white" stroke-width="2"/>
<rect x="1" y="1" width="38" height="38" rx="19" stroke="url(#paint0_linear_6_277)" stroke-width="2"/>
<path d="M27.2806 22.0306L20.5306 28.7806C20.4609 28.8504 20.3782 28.9057 20.2871 28.9434C20.1961 28.9812 20.0985 29.0006 19.9999 29.0006C19.9014 29.0006 19.8038 28.9812 19.7127 28.9434C19.6217 28.9057 19.539 28.8504 19.4693 28.7806L12.7193 22.0306C12.5786 21.8899 12.4995 21.699 12.4995 21.5C12.4995 21.301 12.5786 21.1101 12.7193 20.9694C12.86 20.8286 13.0509 20.7496 13.2499 20.7496C13.449 20.7496 13.6398 20.8286 13.7806 20.9694L19.2499 26.4397V11.75C19.2499 11.5511 19.3289 11.3603 19.4696 11.2197C19.6103 11.079 19.801 11 19.9999 11C20.1988 11 20.3896 11.079 20.5303 11.2197C20.6709 11.3603 20.7499 11.5511 20.7499 11.75V26.4397L26.2193 20.9694C26.36 20.8286 26.5509 20.7496 26.7499 20.7496C26.949 20.7496 27.1398 20.8286 27.2806 20.9694C27.4213 21.1101 27.5003 21.301 27.5003 21.5C27.5003 21.699 27.4213 21.8899 27.2806 22.0306Z" fill="white"/>
<path d="M27.2806 22.0306L20.5306 28.7806C20.4609 28.8504 20.3782 28.9057 20.2871 28.9434C20.1961 28.9812 20.0985 29.0006 19.9999 29.0006C19.9014 29.0006 19.8038 28.9812 19.7127 28.9434C19.6217 28.9057 19.539 28.8504 19.4693 28.7806L12.7193 22.0306C12.5786 21.8899 12.4995 21.699 12.4995 21.5C12.4995 21.301 12.5786 21.1101 12.7193 20.9694C12.86 20.8286 13.0509 20.7496 13.2499 20.7496C13.449 20.7496 13.6398 20.8286 13.7806 20.9694L19.2499 26.4397V11.75C19.2499 11.5511 19.3289 11.3603 19.4696 11.2197C19.6103 11.079 19.801 11 19.9999 11C20.1988 11 20.3896 11.079 20.5303 11.2197C20.6709 11.3603 20.7499 11.5511 20.7499 11.75V26.4397L26.2193 20.9694C26.36 20.8286 26.5509 20.7496 26.7499 20.7496C26.949 20.7496 27.1398 20.8286 27.2806 20.9694C27.4213 21.1101 27.5003 21.301 27.5003 21.5C27.5003 21.699 27.4213 21.8899 27.2806 22.0306Z" fill="url(#paint1_linear_6_277)"/>
<defs>
<linearGradient id="paint0_linear_6_277" x1="3.83178" y1="1.21526e-05" x2="46.1711" y2="2.93248" gradientUnits="userSpaceOnUse">
<stop stop-color="#D1A49D"/>
<stop offset="0.584163" stop-color="#93ACC8"/>
<stop offset="1" stop-color="#D0D7BF"/>
</linearGradient>
<linearGradient id="paint1_linear_6_277" x1="13.9365" y1="11" x2="29.8378" y2="11.9178" gradientUnits="userSpaceOnUse">
<stop stop-color="#D1A49D"/>
<stop offset="0.584163" stop-color="#93ACC8"/>
<stop offset="1" stop-color="#D0D7BF"/>
</linearGradient>
</defs>
</svg>
