<svg fill="none" height="24" viewBox="0 0 24 24" width="24" xmlns="http://www.w3.org/2000/svg"><path d="m21.5287 15.9294c-.16-.27-.61-.69-1.73-.49-.62.11-1.25.16-1.88.13-2.33-.1-4.44-1.17-5.91-2.82-1.3-1.45-2.09997-3.34002-2.10997-5.38002 0-1.14.21997-2.24.66997-3.28.44-1.01.13-1.54-.09-1.76-.23-.23-.76997-.55-1.82997-.11-4.09 1.72-6.62 5.82-6.32 10.21002.3 4.13 3.2 7.66 7.04 8.99.91997.32 1.88997.51 2.88997.55.16.01.32.02.48.02 3.35 0 6.49-1.58 8.47-4.27.67-.93.49-1.52.32-1.79z" fill="white"/></svg>